# xmcd
#
# Track frame offsets:
#	150
#	15370
#	29025
#	42040
#	53957
#	68020
#	81492
#	94442
#	110292
#	122040
#
# Disc length: 1795 seconds
#
# Revision: 0
# Processed by: cddbd v1.4PL0 Copyright (c) Steve Scherf et al.
# Submitted via: dBpowerAMP V4.0
#
DISCID=8107010a
DTITLE=Family Brown - Lassoes and Spurs
DYEAR=1900
DGENRE=Country
TTITLE0=Raised on country Music
TTITLE1=Repeat after me
TTITLE2=Lovin Fool
TTITLE3=Heaven's Just a Sin Away
TTITLE4=I love you More
TTITLE5=R R #2
TTITLE6=Love Is Simple
TTITLE7=Pioneers
TTITLE8=Stay With Me
TTITLE9=Juke Box Lover
EXTD=Family Brown -\n
EXTT0=
EXTT1=
EXTT2=
EXTT3=
EXTT4=
EXTT5=
EXTT6=
EXTT7=
EXTT8=
EXTT9=
PLAYORDER=
